inDegrees=no
num_controls=7
num_derivatives=13
num_iterations=126
num_multipliers=7
num_parameters=0
num_slacks=7
num_states=26
objective=0.517362
objective_accelerations=0.038995
objective_balance=0.002185
objective_effort=0.043002
objective_height=0.421502
objective_ligament=0.011678
solver_duration=1641.407862
status=Solve_Succeeded
success=true
DataType=double
version=3
OpenSimVersion=4.5
endheader
time	/jointset/ground_pelvis/pelvis_tilt/value	/jointset/ground_pelvis/pelvis_tx/value	/jointset/ground_pelvis/pelvis_ty/value	/jointset/hip_l/hip_flexion_l/value	/jointset/hip_l/hip_adduction_l/value	/jointset/hip_l/hip_rotation_l/value	/jointset/back/lumbar_extension/value	/jointset/patellofemoral_l/patellar_flexion_l/value	/jointset/knee_l/knee_flexion_l/value	/jointset/knee_l/knee_adduction_l/value	/jointset/knee_l/knee_rotation_l/value	/jointset/ankle_l/ankle_angle_l/value	/jointset/subtalar_l/subtalar_angle_l/value	/jointset/ground_pelvis/pelvis_tilt/speed	/jointset/ground_pelvis/pelvis_tx/speed	/jointset/ground_pelvis/pelvis_ty/speed	/jointset/hip_l/hip_flexion_l/speed	/jointset/hip_l/hip_adduction_l/speed	/jointset/hip_l/hip_rotation_l/speed	/jointset/back/lumbar_extension/speed	/jointset/patellofemoral_l/patellar_flexion_l/speed	/jointset/knee_l/knee_flexion_l/speed	/jointset/knee_l/knee_adduction_l/speed	/jointset/knee_l/knee_rotation_l/speed	/jointset/ankle_l/ankle_angle_l/speed	/jointset/subtalar_l/subtalar_angle_l/speed	/forceset/tau_hip_flexion_l	/forceset/tau_hip_adduction_l	/forceset/tau_hip_rotation_l	/forceset/tau_knee_flexion_l	/forceset/tau_ankle_angle_l	/forceset/tau_subtalar_angle_l	/forceset/tau_lumbar_extension	lambda_cid13_p0	lambda_cid13_p1	lambda_cid13_p2	lambda_cid13_p3	lambda_cid13_p4	lambda_cid13_p5	lambda_cid14_p0	/jointset/ground_pelvis/pelvis_tilt/accel	/jointset/ground_pelvis/pelvis_tx/accel	/jointset/ground_pelvis/pelvis_ty/accel	/jointset/hip_l/hip_flexion_l/accel	/jointset/hip_l/hip_adduction_l/accel	/jointset/hip_l/hip_rotation_l/accel	/jointset/back/lumbar_extension/accel	/jointset/patellofemoral_l/patellar_flexion_l/accel	/jointset/knee_l/knee_flexion_l/accel	/jointset/knee_l/knee_adduction_l/accel	/jointset/knee_l/knee_rotation_l/accel	/jointset/ankle_l/ankle_angle_l/accel	/jointset/subtalar_l/subtalar_angle_l/accel	gamma_cid13_p0	gamma_cid13_p1	gamma_cid13_p2	gamma_cid13_p3	gamma_cid13_p4	gamma_cid13_p5	gamma_cid14_p0
1	-0.1521482212837246	-0.08811402259407312	0.7322602473941153	1.233754048039344	-0.3281342951139463	-0.007487847372606651	-0.9599070743037229	1.149249893025714	1.149249893027385	-0.08061611243263359	-0.1745259172192178	0.1456831663475072	0.01279969958430581	0.1050790338771095	0.02525754726875378	0.06578991198311994	-0.2887635607753265	0.0007740170918407697	-0.06380391901925325	-0.004108530103807888	-0.1653997588452976	-0.1653997588453075	0.0007185428932294084	-5.718254970435023e-05	0.009848262353558521	0.005472393492369636	-0.3927297802233828	0.01786404471236169	-0.005179968180481327	-0.2924355820645185	0.1011066256691227	0.0434695361097616	0.4322310826035914	-17.44925937557471	-15.90216094529469	2.170689595222763	4.828283382060784	-784.2835533629022	-71.15551543250687	-2.035329836967934	1.006449000793176	0.1878162439838118	1.216540634168257	-4.537910031319438	-0.005877291634307788	-1.380459825459454	0.3252901573274329	-4.062579460172503	-4.062579460172995	-0.2033022457011123	-0.008316535731442044	-0.7973565655116271	-0.2763699149458047	-9.683749429269269e-09	-1.237646322120382e-08	3.654774582635109e-08	4.162986884568254e-09	-2.19811465165071e-08	4.604637085709862e-08	-1.042265353644914e-08
1.01	-0.1510474542571938	-0.08785197829110164	0.7329788045507064	1.230640215207546	-0.328126254267464	-0.008195090493371854	-0.959931010119918	1.147393087167302	1.147393087168648	-0.08061796259466415	-0.174526277411464	0.1457419655423311	0.01284136071791155	0.1150854374656227	0.02716133399745696	0.07791583289096644	-0.3340138159632156	0.0008401900185927344	-0.07764266764971325	-0.0006447898888221383	-0.2059609308268324	-0.2059609308268257	-0.00108875463085025	-1.665307862750847e-05	0.001912734857403436	0.002867092785967904	-0.392362978993077	0.01808308931883258	-0.005213354634069474	-0.2920425903886405	0.1008343606327036	0.04358870414344602	0.4322943577883596	-17.51984778798221	-15.9532011114963	2.1921281820432	4.692325592437225	-784.2112525120177	-71.22745898548089	-2.076663709373868	0.9993946143846959	0.1931650319690865	1.209759162474537	-4.520206875373984	0.01376910933169165	-1.385289369135828	0.3619924453053057	-4.052811034910945	-4.052811034908108	-0.1694781072480424	0.009979542725390433	-0.7914785806365374	-0.2515235170365716	-1.535859971037473e-08	-2.033676468358161e-08	4.857198485359297e-08	1.015874759658017e-08	-2.838530142261143e-08	5.194381304932691e-08	-1.362110094692497e-08
1.02	-0.1498462914794797	-0.08757059509191195	0.7338184491850525	1.227073555101302	-0.3281173707868149	-0.009040662497895691	-0.9599192932358955	1.145130684595521	1.145130684596539	-0.08063789265223183	-0.1745262839381642	0.1457214439143993	0.01285718617074348	0.1251581841143119	0.02912532651239921	0.09000740753407978	-0.379329015665116	0.0009425439254134444	-0.09146969577203573	0.003022009995011104	-0.2465191015190467	-0.2465191015190204	-0.002897436214394743	1.355056037501302e-05	-0.006015902197515107	0.000305257337597782	-0.3919961777627485	0.01830213392531046	-0.005246741087698716	-0.2916495987127625	0.100562095596282	0.04370787217713819	0.4323576329731474	-17.60124548908565	-16.00206675330823	2.212898125535076	4.592775941610589	-784.2850027582716	-71.29183804450693	-2.12757316251931	1.019717612828371	0.1998574012316308	1.209671381221627	-4.550898934121714	0.001358904379444486	-1.378115723831941	0.3659020910971476	-4.061979202308415	-4.061979202308303	-0.2035790575940783	-0.01038170214630012	-0.7959784772643117	-0.2676768633394775	-1.957290594941959e-08	-2.904965875101161e-08	6.071288259278717e-08	1.28540122955739e-08	-3.284937374185067e-08	5.667536722111913e-08	-1.690170815155706e-08
1.03	-0.1485446845210993	-0.08726910120974214	0.7347787506622649	1.223054015008178	-0.3281072658662457	-0.01002428990048339	-0.9598680629408123	1.142462866406732	1.142462866407395	-0.08067599870976656	-0.1745259904293439	0.1456218583940191	0.01284769872715913	0.1351132553871647	0.03120074128514809	0.1020386921672004	-0.4245316145021676	0.001084971613437835	-0.1052425533879145	0.007440759241302277	-0.2870294554197715	-0.2870294554197536	-0.004730504775849517	4.46615634440439e-05	-0.01388120304808566	-0.002188016742250226	-0.3927167239271281	0.01867634390468704	-0.005287961812108025	-0.2907685417340901	0.1001874797463234	0.04395277303078401	0.4337559260016912	-17.73284493512408	-16.10559262921354	2.252484838511438	4.174723162177385	-784.9418297730824	-71.38030433043735	-2.188366021287167	0.9759073106880192	0.2154803391024736	1.197720157515471	-4.497834832110894	0.02166189268742849	-1.374904802889996	0.5123678741301076	-4.043297304586605	-4.043297304587895	-0.174191708199357	0.009800834411756332	-0.7788086437304077	-0.2379455736136274	-2.377230867783117e-08	-3.777023233481968e-08	7.285497072700131e-08	1.551559846382253e-08	-3.729364929999945e-08	6.139502457637628e-08	-2.018315372143563e-08
